<?xml version="1.0" standalone="no"?>
<!DOCTYPE svg PUBLIC "-//W3C//DTD SVG 20010904//EN"
 "http://www.w3.org/TR/2001/REC-SVG-20010904/DTD/svg10.dtd">
<svg version="1.0" xmlns="http://www.w3.org/2000/svg"
 width="1600.000000pt" height="1600.000000pt" viewBox="0 0 1600.000000 1600.000000"
 preserveAspectRatio="xMidYMid meet">
<metadata>
Created by potrace 1.11, written by Peter Selinger 2001-2013
</metadata>
<g transform="translate(0.000000,1600.000000) scale(0.100000,-0.100000)"
fill="#000000" stroke="none">
<path d="M7865 15529 c-40 -10 -141 -56 -235 -105 -564 -296 -1368 -661 -1950
-884 -254 -98 -738 -259 -1005 -335 -351 -99 -786 -194 -1285 -279 -466 -79
-798 -134 -1060 -176 -369 -59 -443 -79 -521 -141 -102 -80 -128 -167 -129
-431 l0 -176 -27 -6 c-16 -3 -59 -10 -98 -16 -149 -22 -177 -32 -221 -75 -46
-46 -57 -80 -74 -230 -11 -96 -54 -411 -95 -690 -13 -93 -29 -210 -35 -259 -6
-50 -20 -149 -31 -220 -11 -72 -26 -180 -34 -241 -8 -60 -26 -189 -40 -285
-75 -523 -105 -735 -129 -930 -6 -54 14 -131 44 -170 66 -83 513 -407 849
-614 l114 -71 43 -220 c153 -793 335 -1509 545 -2139 l91 -275 -30 -43 c-25
-34 -40 -82 -76 -237 -25 -107 -46 -204 -46 -216 0 -54 93 -412 116 -447 l24
-38 0 -1441 0 -1440 -24 -42 c-23 -40 -116 -402 -116 -452 0 -24 88 -404 98
-420 3 -5 43 -62 88 -125 77 -107 92 -122 204 -203 l121 -88 210 -49 211 -50
374 0 c315 0 385 3 441 17 61 15 70 15 137 -1 60 -14 131 -16 448 -16 l376 0
211 50 211 50 112 81 c62 45 121 90 130 101 18 20 18 20 55 -10 113 -89 205
-127 449 -185 l180 -43 100 -76 c133 -100 283 -199 439 -288 60 -34 163 -99
270 -170 61 -40 191 -112 290 -160 143 -71 202 -94 287 -113 l107 -25 88 23
c141 36 460 183 608 280 82 54 201 128 430 268 72 43 166 105 210 136 l80 58
105 11 c125 13 580 120 671 157 35 14 81 37 102 51 21 13 43 22 50 18 7 -4 44
-31 84 -61 72 -52 74 -53 284 -103 l212 -50 378 0 c366 0 380 1 482 25 l104
24 102 -24 c100 -24 112 -25 481 -25 l379 0 210 50 211 50 119 86 c110 80 125
95 205 205 l86 119 50 210 50 211 -50 210 c-30 128 -57 221 -70 239 -20 28
-20 38 -20 1460 0 1422 0 1432 20 1460 13 18 40 110 70 237 l49 208 -49 208
-49 208 -77 107 c-42 59 -92 121 -110 138 l-34 31 60 179 c33 98 79 242 101
319 22 77 53 185 69 240 99 345 301 1224 355 1545 14 85 28 165 31 177 2 14
25 33 62 54 359 202 832 540 925 662 28 37 47 115 41 167 -19 150 -38 295 -54
405 -40 270 -92 646 -115 820 -21 159 -42 318 -116 850 -11 77 -26 192 -33
255 -49 399 -65 479 -112 525 -40 40 -65 48 -243 77 l-133 23 7 171 c10 259
-16 354 -122 441 -24 20 -65 41 -97 49 -155 40 -790 156 -1181 214 -336 51
-923 163 -1203 231 -583 140 -1288 377 -1832 614 -96 42 -202 87 -235 100 -33
13 -105 44 -160 70 -55 26 -120 56 -145 67 -270 123 -550 257 -813 390 -406
204 -467 222 -632 177z m466 -562 c178 -90 362 -181 409 -202 47 -21 198 -91
335 -155 272 -127 268 -126 595 -264 365 -154 445 -184 955 -359 417 -144 986
-294 1460 -386 260 -50 696 -128 790 -141 174 -24 589 -94 784 -132 l214 -42
-7 -75 c-3 -41 -6 -129 -6 -196 l0 -122 -297 43 c-1301 188 -2784 317 -4253
370 -627 23 -1993 23 -2620 0 -1472 -53 -2933 -180 -4265 -370 -170 -24 -312
-42 -315 -39 -2 2 -6 91 -8 197 -4 183 -3 194 14 199 11 3 123 22 249 42 227
36 856 141 1253 210 318 55 761 153 1072 237 539 145 1183 369 1620 563 58 25
139 60 180 76 260 104 1289 596 1440 688 19 11 44 21 56 21 11 0 166 -73 345
-163z m-326 -2482 c65 -245 122 -442 126 -438 3 5 55 205 115 446 l109 437
167 0 c98 0 168 -4 168 -9 0 -6 -88 -279 -195 -607 l-195 -598 0 -288 0 -288
-165 0 -164 0 -3 288 -3 287 -207 601 c-115 331 -208 604 -208 608 0 3 76 6
168 6 l169 0 118 -445z m1836 407 c8 -9 383 -1802 377 -1807 -7 -7 -321 14
-328 22 -4 4 -21 86 -38 182 -18 96 -34 176 -37 179 -5 5 -377 23 -382 19 -1
-2 -13 -72 -28 -157 -14 -85 -28 -168 -31 -183 l-6 -29 -158 4 c-87 1 -162 6
-166 10 -6 7 342 1751 354 1772 6 11 433 -1 443 -12z m-3646 -46 c28 -13 63
-38 78 -55 57 -69 58 -73 55 -822 l-3 -684 -28 -58 c-53 -107 -134 -141 -375
-157 -343 -23 -419 -14 -485 59 -64 71 -62 47 -62 811 l0 695 30 60 c35 71 92
118 168 140 62 18 239 32 432 33 128 2 145 0 190 -22z m4885 -21 c189 -14 346
-31 376 -40 95 -28 161 -87 194 -175 10 -25 15 -119 18 -331 4 -307 -3 -398
-34 -465 -22 -45 -85 -92 -136 -101 -23 -3 -37 -10 -35 -17 3 -6 68 -167 146
-358 77 -191 141 -352 141 -358 0 -8 -13 -10 -37 -6 -21 3 -99 10 -173 17 -74
6 -138 14 -141 17 -3 4 -66 165 -139 358 -129 345 -133 352 -162 358 -17 3
-41 6 -54 6 l-24 0 0 -350 0 -350 -67 6 c-38 3 -111 8 -163 12 l-95 7 -3 898
-2 897 32 0 c18 0 179 -11 358 -25z m-6389 -92 c57 -30 92 -71 109 -132 6 -22
10 -292 10 -718 0 -657 -1 -684 -20 -736 -29 -78 -102 -141 -194 -168 -47 -14
-400 -49 -491 -49 -95 0 -145 19 -192 73 -54 61 -55 77 -51 827 l3 685 30 55
c36 66 97 114 172 136 67 20 353 51 479 53 80 1 97 -2 145 -26z m7974 -59
c165 -19 318 -39 340 -45 97 -27 163 -80 204 -169 l26 -55 0 -695 0 -695 -28
-57 c-32 -66 -70 -93 -150 -110 -46 -10 -94 -7 -328 20 -151 18 -322 37 -381
44 l-108 11 0 900 0 899 63 -7 c34 -3 197 -22 362 -41z m-9380 -1842 c-6 -6
-257 -41 -297 -42 l-28 0 0 768 0 768 -87 -12 c-148 -21 -133 -34 -133 111 0
121 1 125 23 130 12 3 135 20 272 38 l250 33 3 -895 c1 -492 0 -897 -3 -899z
m5900 -158 c1158 -38 2365 -143 3520 -305 360 -50 1025 -155 1031 -162 2 -3
-13 -212 -31 -427 -47 -563 -113 -931 -316 -1775 -74 -306 -180 -680 -261
-920 -54 -160 -118 -345 -123 -353 -1 -1 -41 7 -89 18 -79 18 -120 20 -469 20
-369 0 -385 -1 -481 -24 l-99 -24 -99 24 c-96 23 -112 24 -483 24 l-383 0
-168 -40 -167 -40 -102 -75 c-57 -41 -105 -82 -109 -91 -5 -12 -21 -5 -86 41
-119 84 -188 110 -444 171 -214 52 -243 56 -386 61 -176 6 -236 -3 -550 -80
-204 -51 -252 -72 -394 -172 -58 -41 -107 -75 -109 -75 -2 0 -17 18 -32 40
-15 22 -74 74 -131 115 l-102 75 -167 40 -167 40 -391 0 c-368 0 -397 -1 -483
-21 l-91 -22 -86 21 c-81 21 -110 22 -481 22 l-394 0 -167 -40 -167 -40 -101
-74 c-87 -64 -116 -93 -158 -158 -4 -6 -63 31 -133 81 -191 136 -236 154 -596
236 l-155 35 -517 0 -516 0 -166 -40 c-92 -22 -177 -47 -191 -56 -14 -9 -25
-14 -25 -12 0 3 -29 90 -65 194 -72 209 -132 399 -207 664 -185 652 -372 1524
-403 1880 -31 350 -61 745 -59 749 7 8 557 95 994 156 2017 281 3958 385 5955
319z m5039 -548 c121 -23 221 -47 223 -52 1 -5 -26 -30 -60 -56 -80 -59 -439
-299 -443 -295 -1 1 5 102 14 225 14 185 19 222 32 222 8 -1 114 -20 234 -44z
m-12224 10 c0 -13 7 -108 16 -211 8 -102 14 -190 12 -195 -3 -9 -391 254 -497
337 -11 9 22 17 205 53 247 47 264 48 264 16z m2466 -4086 c138 -35 236 -91
345 -200 86 -85 102 -107 147 -200 80 -164 82 -184 82 -829 -1 -587 -4 -639
-53 -759 -38 -96 -86 -169 -159 -246 l-67 -70 42 -45 c87 -94 147 -200 179
-319 19 -71 21 -114 27 -527 l6 -450 28 -56 c15 -31 46 -77 68 -103 l41 -46
-392 0 -392 0 30 38 c44 55 88 140 106 201 13 46 16 117 16 431 0 431 -3 453
-71 521 -66 66 -91 73 -291 77 l-178 4 0 -506 c0 -579 -3 -556 89 -692 l51
-74 -386 0 -385 0 26 43 c15 23 45 80 68 127 l42 85 3 1670 2 1670 -20 58
c-19 52 -63 132 -107 195 l-15 22 519 0 c485 0 525 -1 599 -20z m5205 -28
c112 -30 209 -83 286 -156 144 -136 205 -305 222 -615 7 -139 9 -150 40 -208
18 -33 50 -79 72 -102 l40 -41 -391 0 -392 0 45 51 c25 28 58 77 73 108 26 51
29 65 29 156 -1 172 -48 271 -155 330 -46 24 -66 29 -126 29 -132 1 -233 -75
-271 -202 -24 -82 -21 -243 6 -346 48 -180 200 -426 467 -752 394 -482 554
-838 554 -1234 0 -269 -61 -479 -180 -627 -91 -112 -248 -195 -420 -223 -159
-25 -414 -6 -557 41 -277 91 -413 358 -413 810 0 85 -5 140 -15 168 -16 47
-64 121 -108 169 l-31 32 392 0 c216 0 392 -3 392 -6 0 -3 -17 -26 -38 -50
-21 -23 -53 -71 -71 -104 l-33 -61 4 -152 c4 -178 20 -229 95 -298 60 -55 104
-72 188 -73 86 0 151 27 213 87 105 103 120 331 36 543 -69 175 -194 359 -469
694 -275 336 -440 630 -505 900 -43 181 -39 478 10 664 71 268 227 414 510
477 118 26 388 21 501 -9z m-3065 -42 c-24 -28 -59 -78 -75 -112 l-31 -61 0
-1452 c0 -1612 -5 -1505 67 -1579 62 -64 103 -79 229 -84 141 -6 206 11 269
69 87 80 80 -55 80 1589 l0 1455 -21 45 c-11 25 -44 75 -72 113 l-51 67 395 0
394 0 -42 -52 c-24 -29 -57 -82 -73 -118 l-30 -65 -5 -1500 c-5 -1427 -6
-1503 -24 -1555 -83 -246 -261 -430 -491 -508 -77 -26 -87 -27 -300 -27 l-220
0 -87 31 c-191 68 -349 206 -433 377 -87 177 -79 23 -85 1717 -5 1407 -6 1507
-22 1537 -10 17 -40 61 -68 97 l-49 66 395 0 396 0 -46 -50z m5020 -10 c-26
-28 -58 -74 -71 -103 l-25 -52 0 -737 0 -738 340 0 340 0 0 708 c0 569 -3 718
-14 754 -7 25 -35 78 -62 119 -27 41 -53 80 -57 87 -6 9 71 12 373 12 l380 0
-46 -57 c-26 -32 -57 -78 -68 -103 l-21 -45 0 -1695 0 -1695 28 -60 c15 -33
46 -83 68 -112 l40 -53 -381 0 c-302 0 -380 3 -374 13 5 6 22 32 40 57 17 25
45 70 60 100 l29 55 3 718 3 717 -341 0 -340 0 2 -722 3 -723 31 -66 c18 -37
49 -85 69 -108 l37 -41 -386 0 -385 0 44 64 c25 35 56 88 70 117 l25 54 0
1675 0 1675 -25 54 c-14 29 -45 82 -70 117 l-44 64 386 0 386 0 -47 -50z
m-3347 -4147 c60 -57 255 -195 329 -233 53 -27 313 -100 356 -100 41 0 14 -25
-101 -96 -185 -111 -330 -202 -393 -244 -103 -70 -463 -240 -506 -240 -35 0
-369 170 -484 247 -58 38 -185 118 -282 177 -98 59 -180 111 -183 116 -3 4 14
11 38 14 23 4 131 29 239 55 230 57 283 81 460 208 150 108 222 174 289 264
l51 70 73 -99 c40 -55 92 -117 114 -139z"/>
<path d="M9546 12149 c-38 -220 -67 -401 -65 -404 3 -2 69 -7 148 -11 l144 -7
-6 29 c-3 16 -36 198 -73 404 -37 206 -70 378 -73 382 -3 4 -37 -173 -75 -393z"/>
<path d="M5766 12600 c-21 -4 -42 -13 -47 -21 -5 -8 -9 -287 -9 -620 0 -492 3
-609 13 -624 13 -16 25 -17 119 -13 58 3 114 11 125 16 11 6 23 26 27 43 3 17
6 289 6 603 0 439 -3 577 -13 596 -12 23 -18 25 -97 27 -47 0 -102 -2 -124 -7z"/>
<path d="M11020 12277 l0 -295 43 -5 c115 -16 237 -19 252 -7 13 10 15 54 15
275 0 145 -3 270 -6 279 -8 22 -61 34 -191 42 l-113 7 0 -296z"/>
<path d="M4335 12487 c-103 -9 -132 -24 -140 -69 -3 -18 -5 -295 -3 -615 2
-449 6 -585 15 -594 14 -14 47 -15 161 -4 123 11 112 -52 112 648 0 625 0 627
-40 639 -8 2 -55 0 -105 -5z"/>
<path d="M12570 11787 l0 -654 143 -17 c170 -20 152 -19 171 0 14 14 16 85 16
633 0 488 -3 621 -13 635 -13 17 -91 33 -254 50 l-63 7 0 -654z"/>
<path d="M9455 10334 c-16 -2 -73 -9 -125 -15 -225 -25 -593 -116 -800 -199
-226 -90 -488 -241 -667 -385 -37 -29 -72 -51 -77 -47 -6 3 -139 7 -296 8
l-285 1 -135 36 c-74 19 -263 77 -420 127 -365 118 -391 126 -513 146 -197 33
-444 -4 -632 -95 -96 -47 -269 -173 -308 -225 -60 -78 -60 -170 0 -237 60 -66
161 -76 262 -25 56 29 222 88 228 82 8 -8 -380 -195 -458 -220 -164 -54 -314
-45 -494 32 -129 55 -196 62 -255 25 -42 -26 -59 -53 -75 -113 -26 -102 34
-194 198 -301 l88 -58 -38 -17 c-80 -34 -275 -95 -369 -116 -84 -19 -131 -22
-314 -22 -240 -1 -273 5 -423 71 -186 84 -322 28 -322 -133 0 -82 30 -127 130
-192 l75 -50 -92 -22 c-122 -30 -309 -95 -380 -132 -128 -68 -156 -213 -59
-301 55 -50 106 -56 230 -28 207 46 294 55 566 55 447 1 639 -46 1075 -264
504 -252 841 -339 1096 -282 93 21 249 76 259 92 3 5 47 -18 98 -51 50 -33
149 -88 219 -122 l127 -62 -6 -40 c-8 -62 12 -118 56 -158 78 -70 371 -114
587 -88 306 38 676 166 911 317 66 42 156 87 205 103 36 12 46 9 175 -42 298
-119 626 -198 947 -228 160 -15 523 -6 659 16 606 97 1085 327 1570 754 173
152 395 408 452 521 75 148 74 446 -3 596 -54 105 -245 331 -405 478 -370 341
-770 573 -1206 702 -164 49 -387 92 -535 104 -119 9 -451 12 -521 4z m-3045
-1247 c100 -41 150 -139 150 -294 0 -135 -31 -173 -139 -173 -79 0 -99 11
-302 164 -80 61 -174 127 -209 148 l-62 36 48 21 c79 35 267 102 309 111 75
15 148 10 205 -13z m-1022 -652 c79 -24 71 -35 -11 -15 -39 10 -81 20 -92 23
-12 3 -5 5 16 6 19 0 58 -6 87 -14z m1601 -371 c49 -41 91 -140 91 -213 0
-107 -37 -151 -111 -131 -44 12 -289 114 -353 147 l-39 20 54 43 c120 95 241
159 301 160 14 0 40 -12 57 -26z"/>
<path d="M3980 4821 l0 -761 160 0 c87 0 182 5 210 11 68 14 128 62 162 128
l28 53 0 557 c0 352 -4 570 -10 593 -16 56 -69 119 -125 147 -47 25 -59 26
-237 29 l-188 4 0 -761z"/>
</g>
</svg>
